<svg xmlns="http://www.w3.org/2000/svg" version="1.1" xmlns:xlink="http://www.w3.org/1999/xlink" xmlns:svgjs="http://svgjs.dev/svgjs" width="1000" height="1000"><g clip-path="url(#SvgjsClipPath1130)"><rect width="1000" height="1000" fill="#ffffff"></rect><g transform="matrix(6.818181818181818,0,0,6.818181818181818,50,425)"><svg xmlns="http://www.w3.org/2000/svg" version="1.1" xmlns:xlink="http://www.w3.org/1999/xlink" xmlns:svgjs="http://svgjs.dev/svgjs" width="132" height="22"><svg width="132" height="22" viewBox="0 0 132 22" fill="none" xmlns="http://www.w3.org/2000/svg">
<path fill-rule="evenodd" clip-rule="evenodd" d="M10.324 0.0149751C10.2334 0.0243915 9.95135 0.0540646 9.69722 0.0808898C9.44309 0.107715 8.94533 0.199215 8.59109 0.284238C5.95392 0.917295 3.58712 2.49686 2.01796 4.67113C0.991609 6.09323 0.249087 7.99079 0.0632558 9.66636C-0.221421 12.2333 0.465277 15.0027 1.91121 17.1191C3.4654 19.394 5.87386 21.0641 8.53489 21.712C9.58393 21.9675 9.90555 22.0006 11.336 22C12.4745 21.9996 12.7309 21.9861 13.2188 21.9011C16.3452 21.3563 19.0228 19.6627 20.73 17.1501C21.6186 15.8423 22.1828 14.4569 22.4728 12.8703C22.5997 12.176 22.6485 10.5701 22.5643 9.85538C22.3277 7.84629 21.6058 6.04771 20.4033 4.47109C18.5595 2.05378 15.8923 0.52934 12.7475 0.0954508C12.2264 0.0235647 10.7221 -0.0263652 10.324 0.0149751ZM12.3548 0.860659C17.72 1.38867 21.809 5.80293 21.809 11.0668C21.809 13.6457 20.7766 16.1548 18.9334 18.0554C17.3462 19.692 15.3121 20.74 12.9343 21.1463C12.2702 21.2598 10.403 21.2598 9.73563 21.1464C8.62705 20.9579 7.78234 20.6966 6.80306 20.2392C5.06082 19.4255 3.62275 18.1948 2.55498 16.6037C1.42912 14.926 0.861509 13.0508 0.863957 11.0172C0.865839 9.42245 1.19142 8.03696 1.89991 6.60884C2.45641 5.48695 3.01306 4.72625 3.94287 3.81685C5.13293 2.6528 6.4497 1.85397 8.01759 1.34475C9.41556 0.890745 10.9359 0.721021 12.3548 0.860659ZM66.9487 1.35941C66.9487 1.38274 67.1128 1.49427 67.3135 1.60726C67.9475 1.96431 68.2876 2.39916 68.4883 3.10938C68.5678 3.39096 68.5726 3.84859 68.5726 11.1478C68.5726 18.5041 68.5683 18.9022 68.4866 19.1834C68.3071 19.8011 68.0504 20.1152 67.4696 20.4275C67.2608 20.5399 67.0899 20.6475 67.0899 20.6669C67.0899 20.6862 68.3184 20.702 69.82 20.702C71.3215 20.702 72.5499 20.6865 72.5497 20.6675C72.5495 20.6485 72.4054 20.5565 72.2294 20.4631C71.7652 20.2163 71.4929 19.9639 71.3316 19.6308C71.0702 19.0908 71.0673 19.0497 71.0673 15.856C71.0673 13.21 71.0758 12.8749 71.1519 12.5028C71.6269 10.183 72.872 8.86372 74.6727 8.77222C76.1878 8.69523 77.1423 9.41115 77.5764 10.9501L77.7034 11.4004L77.7037 15.121C77.7041 18.5428 77.6974 18.8656 77.6205 19.1402C77.4324 19.8123 77.1936 20.1055 76.5572 20.4459C76.3725 20.5447 76.2214 20.6427 76.2214 20.6638C76.2214 20.6848 77.4499 20.702 78.9515 20.702C80.453 20.702 81.6814 20.6865 81.6812 20.6675C81.681 20.6485 81.5294 20.5525 81.3443 20.4541C80.7463 20.1363 80.4852 19.8323 80.2998 19.2377C80.2089 18.9466 80.2036 18.7658 80.1742 15.0292C80.1442 11.2201 80.1409 11.1137 80.039 10.6686C79.726 9.30234 79.0712 8.40084 77.9997 7.86076C77.0299 7.37198 75.7899 7.25866 74.574 7.54767C74.2201 7.63182 73.5023 7.94927 73.1862 8.16158C72.8323 8.39919 72.365 8.84865 72.0713 9.2339C71.7925 9.59971 71.2825 10.5362 71.1796 10.8715C71.1485 10.9729 71.1053 11.0559 71.0836 11.0559C71.0619 11.0559 71.0388 8.87001 71.0322 6.19842L71.0202 1.34094L68.9845 1.32895C67.7629 1.32179 66.9487 1.33396 66.9487 1.35941ZM89.3756 1.41191C87.3739 1.63358 85.7635 2.77168 85.1641 4.38841C84.7311 5.55622 84.8185 6.93846 85.3994 8.10802C85.8165 8.94787 86.1159 9.3186 87.4472 10.6438C88.7676 11.9582 93.7922 17.0194 94.4403 17.6878L94.8357 18.0957L94.6483 18.2546C93.9277 18.8654 92.859 19.3648 91.7073 19.6288C91.0282 19.7845 89.8533 19.8271 89.2199 19.719C87.6953 19.4589 86.395 18.4827 85.8216 17.1679C85.1598 15.6502 85.4221 13.5674 86.4365 12.285C86.6109 12.0646 86.6704 11.9537 86.6492 11.8885C86.6133 11.7779 86.271 11.4693 86.1843 11.4693C86.0849 11.4693 85.3659 11.9111 84.9531 12.2257C84.0186 12.938 83.37 13.8443 83.1108 14.7995C82.974 15.304 82.9853 16.5481 83.1314 17.0701C83.4917 18.3569 84.3296 19.3173 85.6558 19.9638C87.2003 20.7168 89.3715 20.9364 91.3619 20.541C92.7078 20.2737 93.9933 19.6823 94.9883 18.8726C95.149 18.7419 95.2966 18.6349 95.3164 18.6349C95.3361 18.6349 95.7777 19.0483 96.2977 19.5536L97.2432 20.4723L99.2175 20.4677C100.303 20.4652 101.245 20.4481 101.31 20.4297C101.413 20.4003 101.359 20.3625 100.862 20.1166C100.209 19.7932 99.7388 19.4851 99.1705 19.008C98.8378 18.7287 95.486 15.3949 94.1542 14.0186C93.7716 13.6233 91.6847 11.499 90.9678 10.7752C90.7273 10.5325 90.5306 10.3146 90.5306 10.291C90.5306 10.2675 90.7555 10.1678 91.0304 10.0696C92.7921 9.43986 94.0702 8.56855 94.7569 7.52912C95.74 6.04119 95.5231 3.97188 94.2567 2.7556C93.596 2.12099 92.6605 1.68898 91.5426 1.50221C90.9158 1.39748 89.8914 1.35481 89.3756 1.41191ZM110.77 1.39317C107.324 1.81667 104.573 3.6971 103.077 6.65142C102.02 8.73873 101.779 11.3614 102.415 13.8349C103.309 17.3087 105.93 19.7989 109.429 20.4969C109.74 20.5588 110.347 20.6334 110.779 20.6625C113.305 20.8329 115.446 20.1739 116.972 18.7559C117.172 18.5697 117.266 18.4476 117.266 18.373C117.266 18.1799 117.115 17.6703 117.058 17.6703C117.028 17.6703 116.877 17.7756 116.723 17.9042C115.814 18.6625 114.783 19.1214 113.477 19.3499C112.795 19.4693 111.275 19.4713 110.726 19.3535C107.971 18.7628 106.027 16.7554 105.264 13.7127C105.039 12.8149 104.965 12.1258 104.965 10.9181C104.964 8.88411 105.335 7.17253 106.104 5.6587C106.504 4.87131 106.896 4.32355 107.452 3.774C108.182 3.05256 108.891 2.6162 109.831 2.30959C110.537 2.07932 111.054 2 111.853 1.99926C114.586 1.99683 116.765 3.62738 118.138 6.70369C118.26 6.97525 118.381 7.19747 118.408 7.19747C118.44 7.19747 118.447 6.9978 118.426 6.58885C118.41 6.25414 118.363 5.01907 118.321 3.84432C118.28 2.66957 118.231 1.63698 118.213 1.54971L118.181 1.39101L117.895 1.64704C117.53 1.97423 117.269 2.12236 116.889 2.2174C116.452 2.32668 116.199 2.28759 115.101 1.94093C113.633 1.47759 113.222 1.40493 111.971 1.38738C111.401 1.37943 110.861 1.38201 110.77 1.39317ZM28.1634 1.9118C28.1634 1.93923 28.3064 2.05121 28.4811 2.16072C29.2136 2.61969 29.512 3.20989 29.6237 4.42056C29.658 4.79299 29.6688 7.12054 29.657 11.653C29.6418 17.5207 29.6306 18.3784 29.5654 18.6809C29.3741 19.5684 29.0492 20.0686 28.4288 20.4307C28.2828 20.5159 28.1634 20.6015 28.1634 20.6208C28.1634 20.6402 29.4025 20.656 30.9169 20.656C32.4314 20.656 33.6705 20.6463 33.6705 20.6344C33.6705 20.6226 33.5157 20.5109 33.3264 20.3863C32.8954 20.1025 32.7104 19.898 32.5128 19.4871C32.1925 18.8211 32.1878 18.758 32.1878 15.121V11.8597L33.9059 11.8466C34.9444 11.8386 35.778 11.853 36.0134 11.8829C37.2858 12.0445 38.1336 12.6917 38.8182 14.0242C39.0991 14.5708 39.1342 14.6609 39.7721 16.4678C40.3445 18.0895 40.6808 18.947 40.9553 19.4847C41.1693 19.904 41.4828 20.3709 41.6573 20.5302L41.7962 20.657L43.9113 20.645L46.0263 20.6331L45.7439 20.5032C44.5563 19.9575 44.2141 19.7275 43.7658 19.1743C43.3282 18.6343 43.0922 18.1126 42.47 16.31C41.8958 14.6462 41.6417 14.0625 41.2727 13.5593C41.0354 13.2357 40.5691 12.7783 40.2367 12.5431C39.8228 12.2504 39.081 11.9326 38.4604 11.7822C38.143 11.7054 37.8659 11.6269 37.8447 11.6079C37.8236 11.5889 38.0142 11.5483 38.2684 11.5177C39.2979 11.3937 40.2558 11.1153 41.0665 10.7042C42.3322 10.0624 43.0707 9.17602 43.4004 7.90269C43.5283 7.40886 43.5147 6.11436 43.376 5.57248C42.861 3.56059 41.2103 2.4066 38.2363 1.97942C37.7636 1.91153 37.0905 1.89913 32.9292 1.88181C29.5219 1.86762 28.1634 1.87616 28.1634 1.9118ZM91.0196 2.07243C91.479 2.22328 91.7339 2.36691 92.0628 2.6602C92.8711 3.38117 93.3083 4.67324 93.1762 5.95102C93.1073 6.61779 92.9852 7.056 92.7181 7.59494C92.2835 8.47222 91.473 9.24823 90.4499 9.76686C90.1963 9.89543 90.1459 9.90701 90.0705 9.85391C89.9614 9.7772 88.6948 8.48591 88.2758 8.02428C87.6592 7.34492 87.3018 6.76483 87.0872 6.09507C86.9917 5.79696 86.977 5.65773 86.9779 5.06156C86.9792 4.28042 87.0391 3.99186 87.3143 3.44387C87.703 2.66985 88.5142 2.10555 89.4466 1.96072C89.9163 1.88773 90.6064 1.93675 91.0196 2.07243ZM37.1241 2.67301C38.8703 2.92988 39.9928 3.75539 40.4744 5.13712C40.9344 6.45707 40.8426 8.11734 40.2473 9.23927C40.0176 9.67224 39.4987 10.2067 39.067 10.4549C38.6587 10.6898 38.0189 10.908 37.4246 11.0152C36.9507 11.1007 36.6577 11.1133 34.6473 11.1343C33.4112 11.1472 32.3468 11.1448 32.2821 11.1289L32.1643 11.1001V6.88274C32.1643 4.56318 32.1784 2.65156 32.1957 2.63475C32.2129 2.61789 33.2243 2.60425 34.4433 2.60439C36.1644 2.60457 36.7632 2.61992 37.1241 2.67301ZM61.913 3.00332C61.6389 4.35327 61.1743 5.42563 60.5149 6.22984C59.8917 6.9899 59.2345 7.44088 58.3065 7.74519C57.5696 7.98684 57.6408 8.03085 58.8255 8.06631L59.7235 8.09318L59.7495 12.8703C59.7773 17.9904 59.768 17.7908 60.0123 18.5191C60.205 19.0936 60.6157 19.6924 61.0321 20.0059C61.617 20.4462 62.3398 20.6566 63.2635 20.6552C64.1688 20.6539 64.7228 20.4875 65.3477 20.0291C66.06 19.5065 66.6133 18.4318 66.822 17.1651C66.9493 16.3924 66.9596 16.2017 66.8755 16.1701C66.7607 16.1272 66.7255 16.1909 66.5964 16.6755C66.1191 18.4683 65.2113 19.3508 63.9321 19.2656C63.478 19.2353 63.1288 19.0796 62.8403 18.7786C62.5798 18.5068 62.4554 18.2758 62.3221 17.8159C62.2208 17.4665 62.2199 17.4259 62.2057 12.7669L62.1913 8.07021H64.0692C65.1021 8.07021 66.0437 8.05731 66.1617 8.0415L66.3763 8.0128L66.4297 7.71331C66.4591 7.54854 66.4653 7.39632 66.4434 7.37501C66.4216 7.35369 65.462 7.33087 64.311 7.3243L62.2182 7.31231L62.1947 5.0386L62.1711 2.76488L62.0691 2.75069C61.9795 2.73824 61.9606 2.76879 61.913 3.00332ZM5.85526 6.03765C5.85686 6.05658 5.94686 6.13411 6.05531 6.2099C6.30628 6.38532 6.49451 6.74737 6.55679 7.17451C6.61817 7.59572 6.61821 14.2687 6.55679 14.7304C6.49593 15.1884 6.32365 15.5265 6.05818 15.7091C5.94502 15.787 5.85239 15.8674 5.85239 15.8878C5.85239 15.9082 6.48783 15.9249 7.26448 15.9249C8.14967 15.9249 8.67657 15.9081 8.67657 15.8801C8.67657 15.8555 8.61829 15.8058 8.54712 15.7697C8.26141 15.6246 8.05186 15.2781 7.97142 14.8178C7.93899 14.6319 7.92505 13.916 7.93353 12.8704L7.94699 11.2168L8.65303 11.1622C9.04136 11.1321 9.58148 11.0736 9.85331 11.0321C10.1251 10.9905 10.4329 10.9457 10.5373 10.9325L10.7271 10.9084L12.4888 12.6886L14.2505 14.4687L14.0641 14.6288C12.8744 15.6504 11.3381 15.79 10.461 14.9562C10.3183 14.8206 10.1667 14.6107 10.075 14.4217C9.92998 14.123 9.92391 14.0873 9.92391 13.5363C9.92391 12.987 9.93036 12.9489 10.0729 12.6553C10.1548 12.4866 10.3084 12.2569 10.4141 12.1449C10.5199 12.033 10.6064 11.9178 10.6064 11.889C10.6064 11.7342 10.0449 11.9357 9.50965 12.2826C8.8302 12.7229 8.52015 13.3812 8.63152 14.1473C8.7467 14.9398 9.37833 15.5517 10.351 15.813C10.5071 15.8549 10.8996 15.8984 11.2419 15.9117C11.9392 15.9387 12.4865 15.8613 12.991 15.6642C13.3358 15.5295 13.9738 15.1624 14.2622 14.9327C14.3701 14.8468 14.4764 14.7765 14.4983 14.7765C14.5202 14.7765 14.8023 15.0349 15.1251 15.3507L15.7121 15.9249H16.7287C17.2878 15.9249 17.7598 15.9108 17.7775 15.8935C17.7951 15.8762 17.6613 15.786 17.48 15.6929C17.2987 15.5998 17.0316 15.4342 16.8864 15.3248C16.4959 15.0309 12.1125 10.6266 12.1128 10.5286C12.1129 10.5028 12.2878 10.4147 12.5015 10.3328C13.3976 9.98927 14.0417 9.48841 14.3348 8.90712C14.4839 8.6115 14.4897 8.57952 14.4894 8.04807C14.4892 7.51873 14.4829 7.48346 14.3362 7.19035C14.0624 6.64338 13.4567 6.21946 12.7361 6.07045C12.4784 6.01717 11.8 6.00462 9.13549 6.00398C7.32976 6.00357 5.85366 6.01873 5.85526 6.03765ZM9.91101 6.68072C8.99462 7.55181 8.95597 8.843 9.81254 9.96911C10.014 10.2339 10.0191 10.237 10.2056 10.2091C10.5088 10.1637 11.185 9.99387 11.3064 9.93255C11.4173 9.87655 11.4158 9.87389 11.0565 9.48997C10.8219 9.23932 10.634 8.98278 10.5212 8.75922C10.3555 8.43061 10.3476 8.39354 10.3492 7.95538C10.3505 7.58874 10.3723 7.44345 10.4572 7.23542C10.6693 6.71531 11.1162 6.4184 11.7434 6.38091C12.2728 6.34927 12.5788 6.4539 12.9169 6.7821C13.3595 7.21167 13.5209 7.85782 13.3648 8.57438C13.2545 9.08103 13.087 9.37863 12.7051 9.74679C12.2164 10.2178 11.7966 10.4064 10.7712 10.6151C10.1613 10.7392 8.12792 10.9389 7.99194 10.888C7.93329 10.866 7.92345 10.5436 7.92345 8.64714C7.92345 7.42875 7.93757 6.41812 7.95485 6.40131C7.97208 6.38445 8.49267 6.37067 9.11168 6.37067H10.2372L9.91101 6.68072ZM50.1449 7.10855C47.0512 7.44359 44.7511 9.69236 44.3314 12.7922C43.7976 16.7355 46.1531 20.0452 49.8774 20.5848C50.4944 20.6742 51.5372 20.676 52.1218 20.5887C54.3193 20.2603 56.0602 19.0378 57.0102 17.1557C57.4384 16.3074 57.6406 15.5665 57.7302 14.5169C57.8544 13.0631 57.5818 11.66 56.9413 10.457C56.0249 8.73588 54.435 7.58805 52.4251 7.19656C51.8723 7.08889 50.7326 7.04488 50.1449 7.10855ZM123.832 7.18016C122.324 7.33748 120.915 7.94798 119.896 8.88586C118.985 9.72456 118.259 11.0269 117.962 12.3564C117.871 12.7656 117.858 12.9626 117.856 13.9267C117.855 14.8168 117.871 15.1085 117.94 15.4409C118.506 18.1564 120.382 20.0504 123.07 20.6191C123.482 20.7061 123.694 20.7206 124.562 20.7206C125.43 20.7206 125.642 20.7061 126.053 20.6191C128.704 20.0584 130.567 18.2112 131.159 15.5574C131.255 15.1283 131.267 14.9509 131.267 13.9497C131.267 12.9565 131.254 12.7694 131.162 12.3564C130.862 11.0193 130.254 9.90131 129.341 9.0107C128.408 8.10076 127.32 7.54317 125.977 7.28608C125.492 7.19329 124.28 7.13344 123.832 7.18016ZM51.5942 7.68106C51.8098 7.72277 52.1353 7.83618 52.3961 7.96043C53.3149 8.39822 54.075 9.3705 54.5229 10.6809C54.8496 11.6365 54.993 12.6132 54.993 13.8808C54.993 16.3045 54.3631 18.1397 53.1485 19.2548C52.4778 19.8705 51.7337 20.1395 50.8317 20.0925C48.5606 19.974 47.0215 17.4845 47.0198 13.9267C47.0194 12.924 47.0752 12.3679 47.2568 11.5665C47.5602 10.2276 48.0477 9.27367 48.7974 8.55146C49.5916 7.78644 50.568 7.48254 51.5942 7.68106ZM125.483 7.86057C127.139 8.3731 128.251 10.224 128.521 12.9162C128.597 13.6846 128.549 15.0539 128.42 15.7871C128.229 16.8675 127.824 17.9342 127.337 18.6409C127.072 19.0251 126.538 19.5373 126.185 19.7468C126.03 19.8389 125.733 19.9721 125.526 20.0427C125.197 20.1552 125.081 20.1712 124.585 20.1724C124.088 20.1736 123.971 20.158 123.606 20.0412C122.929 19.8246 122.421 19.4525 121.925 18.8094C121.064 17.6947 120.561 15.9232 120.561 14.0054C120.561 10.2036 122.265 7.60734 124.683 7.72447C124.957 7.73775 125.244 7.78653 125.483 7.86057ZM95.5212 10.3554C95.5219 10.3743 95.7627 10.5003 96.0563 10.6353C96.9386 11.0411 97.2736 11.3634 97.4362 11.9631C97.5699 12.4561 97.4305 13.5379 97.0936 14.623C97.0047 14.9089 96.932 15.1698 96.932 15.2026C96.932 15.2643 97.356 15.6952 97.4167 15.6952C97.4546 15.6952 97.6304 15.3283 97.8128 14.8684C98.0078 14.3769 98.2351 13.5836 98.4102 12.7831C98.7192 11.371 98.9852 10.9897 99.9814 10.5307C100.142 10.4566 100.274 10.3791 100.274 10.3584C100.274 10.3378 99.2043 10.321 97.897 10.321C96.5896 10.321 95.5205 10.3365 95.5212 10.3554ZM14.6825 10.5435C14.6689 10.5648 14.7982 10.6527 14.9697 10.7387C15.1503 10.8293 15.3427 10.9696 15.4269 11.0721C15.5691 11.2451 15.5721 11.2593 15.5664 11.7151C15.562 12.0748 15.5321 12.2744 15.4355 12.589C15.3199 12.9657 15.3159 13.005 15.3836 13.1057C15.4238 13.1657 15.4876 13.2148 15.5253 13.2148C15.6613 13.2148 15.915 12.543 16.0926 11.713C16.2048 11.1885 16.3787 10.9084 16.703 10.7298C16.8448 10.6517 16.949 10.5691 16.9345 10.5463C16.9012 10.4937 14.7157 10.4911 14.6825 10.5435Z" fill="#224753"></path>
</svg></svg></g></g><defs><clipPath id="SvgjsClipPath1130"><rect width="1000" height="1000" x="0" y="0" rx="500" ry="500"></rect></clipPath></defs></svg>